<svg xmlns="http://www.w3.org/2000/svg" viewBox="0 0 102.4 102.4">
  <defs>
    <style>
      .cls-1{fill:#fefefe}.cls-2{fill:#fdfdfd}.cls-6{fill:#fbfbfb}.cls-12{fill:#cdcdcd}.cls-15{fill:#4e4e4e}.cls-19{fill:#f1f1f1}.cls-21{fill:#3e3e3e}.cls-23{fill:#ebebeb}.cls-24{fill:#4c4c4c}.cls-25{fill:#4a4a4a}.cls-28{fill:#5e5e5e}.cls-29{fill:#dedede}.cls-33{fill:#787878}.cls-36{fill:#848484}.cls-38{fill:#9a9a9a}.cls-41{fill:#505050}.cls-42{fill:#6d6d6d}.cls-43{fill:#ececec}.cls-44{fill:#666}.cls-46{fill:#464646}.cls-47{fill:#b9b9b9}.cls-51{fill:#f7f7f7}.cls-53{fill:#6c6c6c}.cls-55{fill:#282828}.cls-58{fill:#535353}.cls-63{fill:#5c5c5c}.cls-65{fill:#828282}.cls-70{fill:#8e8e8e}.cls-71{fill:#8a8a8a}.cls-72{fill:#525252}.cls-75{fill:#7f7f7f}.cls-76{fill:#9d9d9d}.cls-81{fill:#eaeaea}.cls-86{fill:#656565}.cls-89{fill:#767676}
    </style>
  </defs>
  <g id="Layer_2" data-name="Layer 2">
    <g id="Layer_1-2" data-name="Layer 1">
      <circle cx="51.2" cy="51.2" r="72.4" class="cls-1"/>
      <path d="M50.6 3a48 48 0 0 1 35.7 16.2 45.8 45.8 0 0 1 12 33.9 46.2 46.2 0 0 1-16 33.3 45.8 45.8 0 0 1-34 12A46.2 46.2 0 0 1 15 82a45.8 45.8 0 0 1-11.8-34 46.5 46.5 0 0 1 16.1-33A49 49 0 0 1 50.6 3Z"/>
      <path d="M38.1 57.1v-1.5h-1.6c-.6-1-3.2.3-2.4-2.2.8-1.6 2.8-1.6 4-2.6 0-1.1-.7-1.5-1.5-1.6a4.2 4.2 0 0 1-.5 0 14 14 0 0 1-5.2 0c-2.5 2.3-6.8.7-9 4.1a10.7 10.7 0 0 1-2.7 2.2c-1-.2-1.9.6-2.8-.1-.1-.8-.4-1.6.2-2.3v-1.5c.7-.9-.4-1.6-.2-2.4l.7-2.8.1-.4a1.8 1.8 0 0 0 0-.9 2.7 2.7 0 0 0-.6-.7l3.1-5c.5-2-.5-4.4.8-6.4a2 2 0 0 1-.7-2c.6-1.4.3-3 .8-4.4A5.5 5.5 0 0 1 21 25c1.4-2.7 2.8-5.3 6.4-5 2.1 0 3.7-1.1 5.3-2.2-1.6 1.1-3.3 2.2-5.5 2.2-3.5-.3-4.7 2.3-6 4.8-.7 1.2-.2 2.8-1.3 4-1.7 1-3.8-.3-5.5.7-.5 0-1 .3-1.4-.2-.8-1.1.4-2 .7-2.4 4.6-6 9.5-11.7 16.5-15 4.6-2.3 9.4-4.6 14.8-4.6 2.5-1.2 5.3-1 8-.7 6 .4 11.8 1.2 17 4.4.6.4 1 .2 1.6.3.3.5 0 .9-.4 1.1a11 11 0 0 0-1.8.2l-.4.3a.6.6 0 0 0 .2.8c-.2.6.6.7.7 1.3l-1.4.5c-.8 1.2 1.4 1.8.7 3.1a2.5 2.5 0 0 0 .8 2.8c-.3 1.5-1.7 2.5-1.6 4.5 1.4 1 1.6 3 3.2 4l-.7.7a2.4 2.4 0 0 0 2 1.4c.4.3.2.7.2 1 .3 1.8-1.4 3-.5 5 1 0 2 .7 3.2 1a10.9 10.9 0 0 1 3 1.6l3.1 2.6c-.7 1-2 1.6-2 3-.6-1.4-2.4-.2-3-1.5-2.9 0-5.5-1.4-8.4-1-1.4.2-2.8.2-3.5 2-.4 1.3-2 1.3-3.3 2.2l-2-2.9V44c-1.1-.3-2-1.2-3.1-1.2-1 0-1.5 1-1.6 3 .7.4.7-.6 1.2-.5.7 1 0 2 .4 3.2-1.2-.7-2.2-.8-2.9-1.6a2.6 2.6 0 0 1-2 1.8l.7.8c-.4 1-1.3.2-1.7.7l-2 1.9 1.9 1.8c.8-.2-.1-1.7 1.1-1.5l.5.3a3.2 3.2 0 0 1 .4 1c.2.6.8 1.2.7 2a5.4 5.4 0 0 1-1.5 2.2 13.5 13.5 0 0 1-1.2 1.1c-.8.6-1.7 1-2.5 1.7l-1 1a3.4 3.4 0 0 1-.4.6 2 2 0 0 1-.4.7 1.8 1.8 0 0 1-.3.7 6.6 6.6 0 0 1-.6 1 7.3 7.3 0 0 1-.5.8l-.5.7a3 3 0 0 0-.5 1.3 3.2 3.2 0 0 1 0 1 6.7 6.7 0 0 1-.3 1.3 7.8 7.8 0 0 1-1 1.8c-1.5 2.8-1 5.2.8 7.7.8 1.2 2.1 2 2.3 3.6.2 2.7-1.7 3.3-3.7 3.8a5.6 5.6 0 0 1-1.6-.1h-.5a5.3 5.3 0 0 1 1 .1c1.3.2 2 1.3 3.2 1.8 1.8.2 3.7-.2 5.7 0a1.8 1.8 0 0 1 1.1 1.2c.6 1.7 2.1 3.2 1.5 5.3-3.2 1.1-6.3-.3-9.4-.6a33 33 0 0 1-8.5-2.4 46.3 46.3 0 0 1-18-13.3 30 30 0 0 1-5.3-8.8l.1-.4.6-.7a3.5 3.5 0 0 1 .4-.8 2 2 0 0 1 1-.4 2.2 2.2 0 0 1 .9.2 3 3 0 0 1 .7.8 6 6 0 0 1 .7 1.3 15 15 0 0 0 1 1.7 8.3 8.3 0 0 0 2.8 2.8c.8.5 1.5 1.3 2.3 1.9l.6.7c0 .8.5.8 1 .8h7l.4-.2v-.4l-.4-.2v-.8c.5-.6 1.3-.3 1.8-.8a2.9 2.9 0 0 1 .1-.3 4.5 4.5 0 0 0-.3-.5c-.2-.8.3-1.3.7-2a25.2 25.2 0 0 0 3.2-13.2c0-.5-.2-1 .4-1.4.4.2.6.9 1.2.7a1.2 1.2 0 0 1 .9-.5h.3l.2-.2.3-.2-.3.2-.3.1a.6.6 0 0 1-.5-.3.5.5 0 0 1 .2-.6Z" class="cls-1"/>
      <path d="M50.8 89.7h-1.6c-1.5-1.4-4.8 0-5.3-3.3 1.5-2.4 3.8-3.4 6.6-3.4 1.9-.2 4 0 5.5-2.1-1.5-3.4-3.7-6.9-.8-10.7a2.4 2.4 0 0 1 1-.7 1.2 1.2 0 0 1 1 .3c.6 1.8 2.2 2.1 4 2.4a11.8 11.8 0 0 0 8.6.8c2 .7 3.4-1.1 5.4-.7a11.6 11.6 0 0 1 .2 3.7 8 8 0 0 0-4 1.5c-1 1-.6 1.7-.7 2.5 3 .8 4.2 4.6 7.7 5.1-2 2.5-3.1 3.5-9.9 6.3-3.8 1.6-7.5 3.6-11.8 3a2.4 2.4 0 0 1-1.1-2.7c.2-1-1.2-1.7-.8-2.8v-.3l-.3-.1H54a1.3 1.3 0 0 0-1 .4c-.8.1-1.3 1.2-2.3.8Z" class="cls-2"/>
      <path fill="#010101" d="M57.1 69.8h-.7l-.3.2-.1.2a1.3 1.3 0 0 1 .4.4c-.2.7.5.8.7 1.3l-1.4.5c-.2.6.7.7.7.9 0 1.3-1.4 1.9-.6 3.5 1.3 1.6 3.5 3 4.4 5.5-.7.6-2-.2-2.6 1-.5 1-1.9.4-2.3.9-1.2 1-2.5.5-3.7.7-2 .8-4.1.3-6 .2-1-.7-.5-1.9-1.1-2.6a2 2 0 0 0-2 .8c-1-.9.2-2.3-.8-3.1l-1.1 1c0-2.1-.1-4-1.6-5.4l.7-.8c-.3-.4-.9-.6-.7-1.6 0-.6 1.2-.9 1.4-1.7l-.5-.5c0-.6.2-.6.6-.6a7.9 7.9 0 0 0 1.2-2.2 3.8 3.8 0 0 1 .6-.8l.6-.9a4.7 4.7 0 0 1 1.1-1c1.4-.6 1.9-2.3 4.1-2.9 1-.2 2.4 1 4 1.5 1.2.6 2.7.4 3.8 1.4s.8 2.3 1.2 3.4Z"/>
      <path d="M35 54c-.5 0-.7 0-.8.5.5.9 2.1-.5 2.3 1h-2.8l-.8-1.8C32 57 32.6 60 32 63a52.2 52.2 0 0 1-3 8.5c-3.5-.2-5.7-2.5-7.5-5.2 1-1.2 1-2.3.2-3.8-.6-1.1-1.8-2.2-1-3.8a6.6 6.6 0 0 0-2.5-2.3c-.3-.8.2-1 .8-1.3.7-.3 1.3-1 2-1.4a18 18 0 0 1 9-3.6c3.6-.5 5.1.8 5 3.9ZM68.3 50.8c2.3-.3 4.7.5 7-.7 1.3-.6 2.8.8 4.1 1.2 1 .4 2.3.5 2.4 2a.6.6 0 0 0 .8.6c.4.5 0 1.2.3 1.8a3.3 3.3 0 0 1 .4.8 2.1 2.1 0 0 1 0 1l-1 1.1c-.5.7-1.5.2-2.1.9-1.6.8-1.2 3.3-3 4-.6.1-1-.3-1.3-.7l-.5.4C75.5 65 75 66 73 66c-.7-.8-1.6-.3-2.4-.4h-1a4.3 4.3 0 0 1-2-.5 14.5 14.5 0 0 1-1.4-1 7.6 7.6 0 0 1-.6-1 6.7 6.7 0 0 1-.4-.9 10.9 10.9 0 0 0-.7-2.2 3.6 3.6 0 0 1-.3-.8 7.9 7.9 0 0 1-.4-1.3 2.4 2.4 0 0 1-.2-.9 4.3 4.3 0 0 1 .2-1.4v-2a6.4 6.4 0 0 1 .2-1 3.1 3.1 0 0 1 .5-.8 1.9 1.9 0 0 1 1.3-.6c.9 0 1.7.4 2.5-.3Z" class="cls-2"/>
      <path fill="#fcfcfc" d="m57.1 69-2.3-1.5a8.1 8.1 0 0 0-2.4-2.5 6.3 6.3 0 0 1-1.1-1 7.5 7.5 0 0 1-1.1-1.9 3.1 3.1 0 0 1 0-3.2l2.6-3.5c1.4-1.3 3.5-1.4 4.6-3A2.7 2.7 0 0 1 59 52c1 .2 1.8-.4 2.7-.3a2.9 2.9 0 0 1 1.7 1.3 5.7 5.7 0 0 1 .7 1.3A5.3 5.3 0 0 0 65 56a3 3 0 0 1 .5.9c.1.4.5.8.7 1.2a2.4 2.4 0 0 0 .3 1c.8.8.2 2 1 2.8a1.3 1.3 0 0 1 .3.8 5 5 0 0 0 .2 2 2 2 0 0 1 0 1 2.1 2.1 0 0 1-1 1 8.6 8.6 0 0 1-2 .4h-1.3l-.3.4v.8c-1 .5-2.1.9-2.7-.7l.1-.2-.2-.2a1.3 1.3 0 0 1 .1.7c-.2 2.2-1.5 1.7-2.8 1.2 0-.4 0-.8-.5-.7l-.3.7Z"/>
      <path fill="#fafafa" d="M94.5 41.3c1.2 5.2.6 10.6.8 15.9-.5.6-.9 1.2-1.8 1.3a4.8 4.8 0 0 1-3.8-3.7c.4-2.8 1.5-5.4 1.6-8.4.4-.6 1.4-1 1.6-2 1.1-.7-.7-3 1.6-3.1Z"/>
      <path d="M93.7 60.3c0 3.1-.6 5.2-2 7.1a9 9 0 0 0-3.6-3.9 3.6 3.6 0 0 1-2-2.4c.5-1.7 1.4-3.2 2-4.8 1.7-1 2.8.1 4 1a4.4 4.4 0 0 1 1.6 3Z" class="cls-6"/>
      <path fill="#646464" d="m58 53.2-4.8 2.4c-.2.3-.5.3-.8 0 0-.9-1.1-1.4-.7-2.4.3-.3.4-.8.8-1a.8.8 0 0 1 .7.2v1.3c1.5.9 2-1.1 3.1-.7 0-.5-.3-.6-.7-.6-.3-.5-.2-1.2-.8-1.6C56 50 56 50 58.5 50l.4 1.4c.4.4 1 .1 1.4.2a1.2 1.2 0 0 1 1.3-.4 1 1 0 0 1 .6.8l-.3.4h-3.2l-.7.8Z"/>
      <path fill="#6f6f6f" d="M92 58c-1.3-.2-1.7-2.5-3.8-1.3 0 1.5-1 2.9-1.7 4.4 0 1.2 1.6 1.3 1.6 2.4-1 .4-1.7-.4-2.3-1-.8-2.7 2-4.3 1.6-6.6.8-.7 2.1.4 2.3-1 1.2 1.1 3.2 1.3 4 3.1a1 1 0 0 1-1.6 0Z"/>
      <path fill="#e4e4e4" d="M13.5 65.9c.1-.5-.3-1 .4-1.6 2.4-.2 1.6 3.1 3.7 3.3l-.9 1c.2.5.9.6.8 1.3a2.5 2.5 0 0 1-.8.5 1.7 1.7 0 0 1-1.4-.3l-.7-.7a5.4 5.4 0 0 1-.5-.8 8.8 8.8 0 0 0-.5-.9 2.2 2.2 0 0 1-.1-1.8Z"/>
      <path fill="#171717" d="M14.3 29.4a.6.6 0 0 1 .6-.8h5v-3.8c0-.5 0-1 .7-1l.4.3c.5 1-.5 2 .4 2.9a4.3 4.3 0 0 0-.8 3c0 .5 0 1-.8 1v-1.5c-1.8-.3-3.7 0-5.5-.1Z"/>
      <path fill="#b7b7b7" d="M94.5 41.3c-1.1 0-.7.8-.8 1.4s.5 1.6-.8 1.7c.6-3.1-1.1-6.1-.7-9.8 1.5 2.3 1.6 4.6 2.3 6.7Z"/>
      <path d="M75.4 14.3h1.1c.6 1.7 2.2 2 3.6 2.6a2 2 0 0 1-2.6 1.3 5.8 5.8 0 0 1-2-2.3c.1-.2.2-.4.1-.6l-.2-.2Z" class="cls-12"/>
      <path fill="#b1b1b1" d="M80.2 65.9a20.7 20.7 0 0 1 1.6-5.6c.9 1-.1 2.3.8 3.2 0 1.4.1 2.7-1.6 3.2-.5 0-.5-.6-.8-.8Z"/>
      <path fill="#a3a3a3" d="M8 57.1c1.4 2.5 1.5 3 1 5A4.6 4.6 0 0 1 7 58c.3-.3.4-.8.8-.9Z"/>
      <path d="M17.5 49.2c-.3.8.7 2-.8 2.4 0-1-.9-.7-1.6-1v-4.8a.6.6 0 0 1 .8-.5 4.5 4.5 0 0 1 1.4 2.3l.4.8a.9.9 0 0 1-.2.8Z" class="cls-15"/>
      <path fill="#747474" d="M69.8 73a2.3 2.3 0 0 1 0 .4c-3 .4-6 1.3-8.7-1.2 1.6-.4 2.8 1 4.4.8s3 0 4.3 0Z"/>
      <path fill="#444" d="M61.1 65.9v2.4h2.4c-2.7 1.6-3.3 1.7-5.3 1.4l-.3-.6h2.4v-3.2c.3-.3.6-.3.8 0Z"/>
      <path fill="#d4d4d4" d="M68.3 50.8c-.4 1.5-1.6.5-2.4.8a3.3 3.3 0 0 1-1 .3 4 4 0 0 1-2.6-.4c-.6-.5-1.4 0-2-.7 0-.7.5-.7 1-.8 2.4-.6 4.6.8 7 .8Z"/>
      <path d="M17.5 70.7a11.3 11.3 0 0 1 4 4 .6.6 0 0 1 .2.5l-.1.4a1.5 1.5 0 0 1-2-.4L18 74a7.6 7.6 0 0 1-.8-.8 7 7 0 0 1-1-1.2v-.6a1.7 1.7 0 0 1 .4-1 .6.6 0 0 1 .9.3Z" class="cls-19"/>
      <path fill="#d3d3d3" d="M64.3 66.7c1 .4 1.5-.7 2.4-.8a9.3 9.3 0 0 0 1.5-.2 2 2 0 0 1 1.6 1v2c-1.9-1.5-3.7-1.2-5.5-1.2-.5-.3-.5-.6 0-.8Z"/>
      <path d="m53.2 89 3.7-3.3c.6 0 1.1.1 1 .8-.3.3-.3.7-.6 1s-.7.3-1 .6l-1.6.8Z" class="cls-21"/>
      <path fill="#454545" d="M92 58h1.7l1.6-.8c0 .6 0 1.2-.5 1.7-.5.4-1.2.7-1.1 1.5-1.4-.3-.8-1.9-1.6-2.4Z"/>
      <path d="M78.6 70.7v1c-.5 1-1.4.2-2 .6a2.1 2.1 0 0 1-.2-2.2c.4-.5 1-.2 1.4-.2a1.2 1.2 0 0 1 .4.4l-.3.2.2-.2a1.8 1.8 0 0 1 .5.4Z" class="cls-23"/>
      <path d="M22.2 74.6c.9.1 1.4 1 2.4.9.7-.2 1.2.6 1.6 1.5-1.5 0-2.6-1.3-4-.8L22 76a.8.8 0 0 1 0-.8.8.8 0 0 1 .3-.6Z" class="cls-1"/>
      <path d="M35 75.4c-1.8-.4-3.1 1.2-4.8.8a.6.6 0 0 1 .6-.8c.5 0 1 0 1-.8h3.1c.3.2.4.4.3.6l-.3.2Z" class="cls-24"/>
      <path d="M69.8 66.7h-2.3a1 1 0 0 1 0-1.6l.2-.3h.4a3.6 3.6 0 0 0 1.1 0 .8.8 0 0 1 .7.3h.8c.5.3.5.5 0 .8-.6 0-.9.2-.9.8Z" class="cls-25"/>
      <path d="M16.7 48.4c-.1.5.2 1-.5 1.7-.6-1.7-.2-3.3-.3-4.9h.8a1.6 1.6 0 0 1 .7.8 3.6 3.6 0 0 1-.1 1.6 3 3 0 0 1-.6.8Z" class="cls-19"/>
      <path fill="#f3f3f3" d="M82.6 63.5c-.7 0-.8-.4-.8-1v-3a1.1 1.1 0 0 1 .8-.4 1.3 1.3 0 0 1 .8.5c-1 1.1-.8 2.5-.8 3.9Z"/>
      <path fill="#5d5d5d" d="M69 13.5h-1.5v-1.6c.2-.3.5-.3.8 0h2.3c.3.2.4.4.3.5l-.3.3c-.5.1-1.5-.4-1.5.8Z"/>
      <path d="M13.5 65.9c1.5.4.5 1.6.8 2.4a.5.5 0 0 1-.8 0h-.8a1.6 1.6 0 0 1 0-2.4Z" class="cls-28"/>
      <path d="M54.8 50.8H58c-.5 1.4-2.5 0-2.5 1.6-1.1 0-.6-1-.7-1.6Z" class="cls-29"/>
      <path fill="#797979" d="M19 55.6c-.5 0-.8.2-.7.8h-1.6c-.3-.2-.3-.4-.3-.6s.2-.2.3-.2c.8-.2 1.3-1.2 2.4-.8.1.2.2.3.1.5l-.1.3Z"/>
      <path fill="#868686" d="M82.6 59.5h-2.4a.6.6 0 0 1 .6-.7c.5-.1 1-.1 1-.8a.7.7 0 0 1 .8-.1 1.2 1.2 0 0 1 .4.8 1 1 0 0 1-.4.8Z"/>
      <path fill="#989898" d="M16.7 55.6v.8a2 2 0 0 1 0-3.2Z"/>
      <path d="M70.7 65.9V65a1.8 1.8 0 0 0 1.9-.7c.7.3.3 1 .4 1.5Z" class="cls-33"/>
      <path fill="#dadada" d="M84.1 55.6a2 2 0 0 1 0 3.1 4.7 4.7 0 0 1-.6-.8 2.6 2.6 0 0 1 0-1.5 2.5 2.5 0 0 1 .6-.8Z"/>
      <path fill="#aeaeae" d="M70.7 12.7v-.8c.5 0 .8-.2.7-.8a2 2 0 0 1 1.6 1.6Z"/>
      <path d="M11.1 68.3c.3-.8-.7-2 .8-2.4.6.6.3 1.4.4 2.1a2.7 2.7 0 0 1-.2 1.1 1 1 0 0 1-1 0 .6.6 0 0 1-.2-.5l.2-.3Z" class="cls-36"/>
      <path d="M12 68.3v-2.4h.7v2.4l-.4.5Z" class="cls-6"/>
      <path d="M80.2 65.9c.5 0 .8.2.8.8s.4 1.5-.8 1.6c-.3-.2-.4-.4-.3-.6l.3-.2Z" class="cls-1"/>
      <path fill="#b8b8b8" d="m81.8 55.6.8-1.6c1.1 0 .6 1 .8 1.6l-.2.3-.4.1h-.4a1.7 1.7 0 0 1-.6-.4Z"/>
      <path d="M60.3 50.8h2.4a.7.7 0 0 1 .3.6c0 .2-.1.3-.2.3a.7.7 0 0 1-.9-.1h-1.6Z" class="cls-38"/>
      <path fill="#e2e2e2" d="M38.1 57.1a.7.7 0 0 0 .8.8c0 1.2-1 .7-1.6.8.1-.6-.4-1.5.8-1.6Z"/>
      <path fill="#aaa" d="M74.6 14.3a.7.7 0 0 1-.8-.8c-.2-.2-.3-.4-.2-.5l.2-.3c.6 0 .8.3.8.8.3.2.3.3.3.5s-.2.3-.3.3Z"/>
      <path d="M64.3 66.7v.8h-1.6a.5.5 0 0 1-.2-.6l.2-.2Z" class="cls-41"/>
      <path d="M16.7 46v-1.5h.8c.5.9.6 1.6-.8 1.5Z" class="cls-1"/>
      <path d="M9.5 65.9a.7.7 0 0 1-.8-.8c.3-.5.6-.5.8 0 .6 0 .8.2.8.8-.3.5-.5.5-.8 0Z" class="cls-42"/>
      <path d="M53.2 52.4h-.8a.5.5 0 0 1-.8 0c0-.7.5-.8 1-.8a.6.6 0 0 1 .6.8ZM15.9 58c0 .6-.3.8-.8.8a.5.5 0 0 1-.8 0c0-1.3 1-.7 1.6-.8Z" class="cls-1"/>
      <path d="M84.1 58v.8h-.7c-.3.4-.6.4-.8 0V58l.2-.3a1.2 1.2 0 0 1 .7-.2 1.8 1.8 0 0 1 .6.5Z" class="cls-43"/>
      <path d="M11.1 68.3v.8l.5.4-.5.4c-1.2-.1-.7-1-.8-1.6Z" class="cls-44"/>
      <path d="M7.1 56.4v-1.6c1.3.3.7 1 .8 1.6-.2.5-.5.5-.8 0Z" class="cls-29"/>
      <path fill="#777" d="M30.2 77h1.6a.5.5 0 0 1 .1.5l-.1.3h-1.6Z"/>
      <path d="M8.7 64.3c0-.4 0-.7.6-.6l.2.6c-.2.4-.5.4-.8 0Z" class="cls-21"/>
      <circle cx="9.1" cy="64.7" r=".6" class="cls-46"/>
      <path d="M14.3 58.7h.8c0 .4 0 .8-.5.7-.2 0-.2-.4-.3-.7Z" class="cls-1"/>
      <path d="M9.5 65.9h.8v.8c-.3.5-.5.5-.8 0Z" class="cls-47"/>
      <path d="M9.5 66.7h.8v.8a.5.5 0 0 1-.8 0Z" class="cls-33"/>
      <path fill="#202020" d="M9.5 67.5h.8v.8c-.5 0-.8-.3-.8-.8Z"/>
      <path fill="#c2c2c2" d="M73.8 12.7v.8c-.5 0-.8-.3-.8-.8Z"/>
      <path d="M80.2 67.5v.8c-.3.3-.6.3-.8 0 0-.6.2-.8.8-.8Z" class="cls-1"/>
      <path d="M74.6 14.3v-.8c.6 0 .8.2.8.8Z" class="cls-43"/>
      <path d="M75.4 15c.4 0 .7.1.6.6l-.6.3Z" class="cls-1"/>
      <path fill="#1c1c1c" d="M11.5 31q-.5-.4 0-.8.6.4 0 .8Z"/>
      <path d="M79.4 68.3h.8c0 .5-.3.8-.8.8Z" class="cls-23"/>
      <path d="M78.6 69.8c0-.5.2-.8.8-.7 0 .5-.3.8-.8.8ZM17.5 70.7h-.8a.5.5 0 0 1-.2-.6q0-.2.2-.2h.8Z" class="cls-1"/>
      <circle cx="78.2" cy="70.3" r=".6" class="cls-1"/>
      <path d="M15.9 58a.6.6 0 0 1 .5-.8l.2.3a.5.5 0 0 1-.7.4Z" class="cls-51"/>
      <path fill="#f0f0f0" d="M8 57.1a.7.7 0 0 1-.9.8v-.8c.3-.3.6-.3.8 0Z"/>
      <circle cx="7.5" cy="56.8" r=".6" class="cls-1"/>
      <path d="M84.1 55.6v.8c-.7.2-1 0-.7-.8Z" class="cls-53"/>
      <path d="M22.2 77h-.8c-.1-.7 0-1 .8-.8Z"/>
      <circle cx="83" cy="59.1" r=".6" class="cls-1"/>
      <path d="M22.2 74.6v.8c-.2.4-.5.4-.8 0v-.8Z" class="cls-1"/>
      <path fill="#090909" d="M35 54v-1.5c-1.7.3-3-1.5-4.7-.8a10.7 10.7 0 0 1-4.6.7c-.4.7.2.7.4 1.3-1.8.4-3.5 1.4-5.5 1a1.9 1.9 0 0 1 0-2.3c.8-1.7 1.4-3.5 4.3-3.6.8.4.8.4 3.3.4.9-.8 0-2 .5-2.9a2.1 2.1 0 0 1 2.7-1c1.3.5 1 2.3 2.3 3l2-1V46c-.3-.8.1-1 .8-.8.8 1.1 2.8 1.3 2.6 3.2h2c0 1.9 1.3 3.3 2 5.3-1.3.3-2.5.8-3.6-.4-1 1-2 .6-2.8-.1-.9-.2-1 1-1.8.8Z"/>
      <path d="M44.5 82.6c1.5.1.3 1.5 1.1 2.3h6c0 .8-.4.8-1 .8h-6.1c-.1 2.2 1.6 2 2.5 2.3s1.9.6 2.2 1.7c-2.3-.6-4.3 1.1-6.7.8-1.2-.8-1.9-2.1-2.8-3.2-.5-.9.3-1.1.8-1.6a.6.6 0 0 1 .6-.7h3c.6-.9.3-1.7.4-2.4Z" class="cls-55"/>
      <path fill="#141414" d="m27 19 5.3-3h6.5c-1.3 2.6-3.9 2.7-6 3.2-.5.9 0 1.3.5 1.8L32 22.4l-1-2-1.3 1c-1 .3-1.2-1-2-.8-.4-.4-1.2-.6-.7-1.6Z"/>
      <path fill="#1f1f1f" d="m27 19 .8 1.6H25c-.8 2-2.5 3.1-3.7 4.8-.5-.4-.2-1.2-.8-1.6V22a6.3 6.3 0 0 1 6.4-3Z"/>
      <path d="M16.7 69.8v1.6a2 2 0 0 1 1.6 1.6 2 2 0 0 1 1.5 1.6.8.8 0 0 1-.7.8c-2.2 0-3-1.8-4-3.2a3 3 0 0 1 0-3.2Z" class="cls-58"/>
      <path d="M50.8 58.7a4.3 4.3 0 0 0 .8 3.2 1.9 1.9 0 0 1-1.3.8A1.7 1.7 0 0 1 49 62a2.6 2.6 0 0 1-.4-1l-.6-.2a2.1 2.1 0 0 1-1.6-1.4 1 1 0 0 1 .4-.8A4.3 4.3 0 0 0 50 58a1 1 0 0 1 .7.4Z" class="cls-44"/>
      <path fill="#7b7b7b" d="M16.7 46c1.2 0 .6-1 .8-1.6h.8a7.5 7.5 0 0 0 .8.8 4.3 4.3 0 0 0-.9 3c.1.5 0 1-.7 1v-.9a3.7 3.7 0 0 1-.8-.7Z"/>
      <path d="M28.6 86.5c-2 .3-2.3-1.6-3.8-2.3 1.4-1.1 2.2-1 3-.5l-.8.9c.6.3.8 1.2 1.6 1.1.2.2.3.4.2.6l-.2.2Z" class="cls-42"/>
      <path d="M19 75.4a.7.7 0 0 1 .8-.8l1.6.8h.8v.8a.7.7 0 0 0-.8.8 2 2 0 0 1-2.3-1.6Z"/>
      <path fill="#111" d="M27 42.9h-3.1c.6-1.9 1.9-1.6 3.1-1.6a1 1 0 0 1 0 1.6Z"/>
      <path d="m40.5 85.7-.8 1.6h-3.2c.4-1 .8-1.4 1.6-1.6a.5.5 0 0 0 .8 0Z" class="cls-44"/>
      <path fill="#8b8b8b" d="M20.6 52.4v2.4c0 1.2-1 .7-1.6.8v-.8c.9-.6.3-2.2 1.6-2.4Z"/>
      <path fill="#a6a6a6" d="M52.4 55.6h.8l-2.4 3.1a1 1 0 0 1 0-1.6 2 2 0 0 1 1.6-1.5Z"/>
      <path d="M27 42.9v-1.6a2 2 0 0 1 2.3 1.3c-.8.5-1.6.2-2.3.3Z" class="cls-63"/>
      <path fill="silver" d="M43.7 62c.3-.9-.8-2 .7-2.5.6.5 1.2.9 1.2 1.7a1.3 1.3 0 0 1-1 1.1 1.3 1.3 0 0 1-1-.4Z"/>
      <path d="M36.5 45.3a.7.7 0 0 0-.8.7c-1.5-.4-.6-1.4-.6-2.3.7.4 1.3.8 1.4 1.5Z" class="cls-65"/>
      <path d="M15 69v3.2c-1.4-.3-.4-1.6-.7-2.3l-.4-.5.3-.4a.6.6 0 0 1 .9 0Z" class="cls-12"/>
      <path d="M20.6 23.8c1.2 0 .7 1 .8 1.6V27c-.7 0-.8-.4-.8-1Z"/>
      <path fill="#707070" d="M42 68.3a2 2 0 0 1-1.5 2.3c-.4-1 .7-1.5.8-2.3.2-.4.5-.4.8 0Z"/>
      <path fill="#484848" d="M41.3 58c1.1.2 1 1 .4 1.5-.4.3-1.2.2-1.2-.7l.1-.4a2.3 2.3 0 0 0 .7-.4Z"/>
      <path fill="#ccc" d="M68.3 12h-.8a.6.6 0 0 1-.7-.6c.7-.4 1.3-.6 1.5.5Z"/>
      <path fill="#838383" d="M43.7 62h.7c.7.9.4 1.5-.7 1.7-.4-.3-.5-.7 0-1Z"/>
      <path d="M46.8 58.7v.8a1 1 0 0 1-1.2.4l-.4-.4c.1-1.1 1-.6 1.6-.8Z" class="cls-36"/>
      <path d="M43.7 62.7v.8a.7.7 0 0 1 .2.6c0 .2 0 .3-.2.3a.6.6 0 0 1-.8-.1c.1-.6-.4-1.5.8-1.6Z" class="cls-65"/>
      <path d="M45.3 61.1c-1.2 0-.7-1-.8-1.6h.8a1.1 1.1 0 0 1 0 1.6Z" class="cls-70"/>
      <path d="M42 68.3h-.7c0-.6.2-.9.8-.8a.5.5 0 0 1 .8 0 .7.7 0 0 1-.8.8Z" class="cls-38"/>
      <path d="M12 68.3h.7c-.1.6.4 1.5-.8 1.5-.3-.1-.3-.3-.3-.5s.2-.2.3-.2Z" class="cls-71"/>
      <path d="M50.8 57.1v1.6c-.6 0-.8-.2-.8-.8s.3-.8.8-.8Z" class="cls-25"/>
      <path d="M39.7 57.1c.5 0 .8.3.8.8.2.2.3.4.2.6l-.2.2c-.6 0-.8-.2-.8-.8-.2-.1-.3-.3-.2-.5l.2-.3Z" class="cls-72"/>
      <path fill="#acacac" d="M35 75.4v-.8c0-.4 0-.6.4-.7.5.7.6 1.3-.5 1.5Z"/>
      <path fill="#c4c4c4" d="M38.1 75.4c-.2 1.1-.8 1-1.5.5a.6.6 0 0 1 .7-.5.5.5 0 0 1 .8 0Z"/>
      <path d="M30.2 86.5a.6.6 0 0 1 .7.5c-.7.5-1.3.6-1.5-.5l.4-.3Z" class="cls-46"/>
      <path d="M42.9 64.3h.8a.8.8 0 0 1 0 .9.7.7 0 0 1-.8-.1Z" class="cls-75"/>
      <path d="M42.9 65h.8a.7.7 0 0 1-.5 1L43 66Z" class="cls-76"/>
      <path d="M40.5 58.7V58h.8c0 .5-.3.8-.8.7Z" class="cls-21"/>
      <path fill="#6e6e6e" d="M42 66.7c0-.6.3-.8.9-.8a.6.6 0 0 1 .2.5c0 .2-.1.3-.2.3a.6.6 0 0 1-.8 0Z"/>
      <path d="M42 66.7h.9l.3.4-.3.4H42Z" class="cls-41"/>
      <circle cx="11.5" cy="69.5" r=".6" fill="#5a5a5a"/>
      <path d="M14.3 69v.9c-.6 0-.8-.3-.8-.8.3-.4.5-.4.8 0Z" class="cls-47"/>
      <path d="M39.7 57.1v.9h-.8c0-.6.2-.9.8-.9Z" class="cls-44"/>
      <path d="M14.3 69h-.8v-.7h.8c.2.1.3.3.2.5l-.2.3Z"/>
      <path d="M38.1 75.4h-.8c0-.4 0-.7.5-.6.2 0 .2.4.3.6Z" class="cls-33"/>
      <path d="M51.6 52.4h.8c0 .5-.2.8-.8.8Z" class="cls-1"/>
      <path d="M33.7 76.2q.6.4 0 .8-.5-.4 0-.8Z" class="cls-72"/>
      <path d="M31.8 77.8V77c.3 0 .7 0 .6.5 0 .2-.4.2-.6.3Z" class="cls-70"/>
      <path d="M29.4 85.7c0-.5.2-.8.8-.8a.5.5 0 0 1 .2.6l-.2.2-.4.4Z" class="cls-71"/>
      <path fill="#b0b0b0" d="M30.2 85.7V85c.4 0 .7 0 .6.6l-.6.2Z"/>
      <path d="M28.6 86.5v-.8h.8c.2.2.3.4.2.6l-.2.2Z" class="cls-25"/>
      <circle cx="29.8" cy="86.1" r=".6" class="cls-21"/>
      <path d="M38.9 85.7c0 .4 0 .8-.5.7-.2 0-.2-.5-.3-.7Z" class="cls-55"/>
      <path d="M19 45.3c-.5 0-.8-.3-.7-.8.5 0 .8.2.8.8Z" class="cls-63"/>
      <path fill="#2b2b2b" d="m63.9 82.6 2.4 1.5a2 2 0 0 1 .1 2.3c-1.4.5-1.6-1-2.5-1.4l-2.4-.1c-.4-.4-.3-.7 0-.7 1.3.1 1.6-1.1 2.4-1.6Z"/>
      <path d="M57.1 87.3a.7.7 0 0 1 .8-.8c0 .6.4 1.5-.8 1.6-.2-.2-.3-.3-.2-.5l.3-.3Z"/>
      <path d="M56.4 70.7c-.6 0-.8-.3-.8-.8h.8Z" class="cls-1"/>
      <path d="M57.1 87.3v.8h-.7c0-.5.2-.8.8-.8Z"/>
      <path d="M42.9 66.7v-.8c.5 0 .8-.3.8-.8v-1.6c1.1 0 .6-1 .7-1.6a.7.7 0 0 0 .8-.8v-1.6h1.6c1-.3 1.6.7 2.4.8l.4.4-.4.4c0 .6.3.8.8.8 1.3 1 3 1.9 1.6 4h-1.2l-.7-1.6h-1.8l-2.1 2.4h-2.1c-.3.3-.6.3-.8 0Z" class="cls-81"/>
      <path fill="#494949" d="M51.6 65.9V64c-.5-.8-1.4-1-1.6-2h1.6l.8 1.6.8.8c0 .7.6 1 1 1.4s.6 1.1.6 1.7c-.8 0-1-.6-1.5-1s-1-.6-1.7-.6Z"/>
      <path d="M42.9 66.7h.8a.7.7 0 0 1-.8.8Z" class="cls-1"/>
      <path fill="#d1d1d1" d="M55.6 69.8a.6.6 0 0 1-.7-.4l.2-.3a.5.5 0 0 1 .5.8Z"/>
      <path fill="#9c9c9c" d="M67.5 62c-.5 0-.9-.3-.8-.6.3-1.1-.5-1.8-.8-2.7l.4-.5.4.5c.7 0 .8.4.8 1Z"/>
      <path fill="#696969" d="M83.3 55.6c0 .5.3.8.8.8V58h-.7a1.8 1.8 0 0 0-.7-.4l-.1-.4v-.8c-.3-.2-.4-.3-.3-.5l.3-.3Z"/>
      <path d="M68.3 65h-.8v-2.3a.5.5 0 0 1 .8 0v1.6c.2.2.3.3.2.5l-.2.3ZM65 56.4a2 2 0 0 1-1.5-1.6l.2-.4a.9.9 0 0 1 .8-.1 1.2 1.2 0 0 1 .6.5v.8l.3.4Z" class="cls-75"/>
      <path d="M72.2 59.5c0-.3.1-.6.6-.7 0 .9 1 1.9-.6 2.3a1 1 0 0 1 0-1.6Z" class="cls-86"/>
      <path fill="#888" d="M65.9 58a.7.7 0 0 1-.8-.8c.3-.5.5-.5.8 0 .5 0 .8.3.8.8-.3.3-.5.3-.8 0Z"/>
      <path d="M72.2 59.5v1.6a.5.5 0 0 1-.8 0c.2-.6-.4-1.5.8-1.6Z" class="cls-21"/>
      <path d="M68.3 65v-.7c.6.1 1.5-.4 1.5.8h-.7a.5.5 0 0 1-.8 0Z" class="cls-33"/>
      <path fill="#626262" d="M65 53.2v.8a1 1 0 0 1-.8.4 1.3 1.3 0 0 1-.9-.4l-.2-.5.2-.5a1.6 1.6 0 0 1 1-.3 1.4 1.4 0 0 1 .8.5Z"/>
      <circle cx="66.3" cy="58.3" r=".6" class="cls-89"/>
      <path d="M82.6 58h-.8a.7.7 0 0 1 .8-.8c.2.2.3.4.2.5l-.2.3Z" class="cls-28"/>
      <path fill="#737373" d="M65.9 57.1H65v-.7a.5.5 0 0 1 .8 0Z"/>
      <path d="M82.6 55.6v.8c-.6 0-.9-.3-.8-.8Z" class="cls-53"/>
      <path fill="#7c7c7c" d="M65.9 56.4H65v-.8c.5 0 .8.2.8.8Z"/>
      <path fill="#969696" d="M65 51.6h.9c0 .6-.3.8-.8.8l-.2-.2v-.4Z"/>
      <path d="M64.3 54h.8v.8h-.8l-.5-.4Z" class="cls-15"/>
      <path d="M65 53.2h-.7a.6.6 0 0 1-.3-.6c0-.2.1-.3.2-.3a.7.7 0 0 1 .9 0Z" class="cls-24"/>
      <path d="M71.4 61.1h.8c0 .4 0 .8-.5.6l-.3-.6Z" class="cls-86"/>
      <path d="M68.3 62.7h-.8V62c.5 0 .8.3.8.8Z" class="cls-76"/>
      <path d="M61.1 65.9h-2.4a.5.5 0 0 1-.2-.5l.2-.3c.8.3 2-.7 2.4.8Z" class="cls-58"/>
      <path fill="#929292" d="M62.7 54c-1.2 0-.7-1-.8-1.6 1-.5 1.7-.7 1.6.8-.3.3-.3.7-.8.8Z"/>
      <path d="M67.5 65v1.7a.7.7 0 0 1-.8-.8c0-.6.2-.8.8-.8Z" class="cls-89"/>
      <path d="M62.7 54c0-.6.2-.8.8-.8v.8c.3.2.3.3.3.5s-.2.3-.3.3c-.5 0-.8-.3-.8-.8Z" class="cls-42"/>
      <path d="M53.2 64.3c-.6 0-.8-.3-.8-.8.5 0 .8.3.8.8Z" class="cls-81"/>
      <path d="M58.7 65v.9c-.3 0-.7 0-.6-.5 0-.2.4-.2.6-.3Z" class="cls-25"/>
      <path d="M62.7 66.7v.8c-.4 0-.7 0-.6-.5 0-.2.4-.2.6-.3Z" class="cls-89"/>
      <path d="M58 53.2a.7.7 0 0 1 .8-.8c0 .5-.3.8-.8.8Z" class="cls-29"/>
      <path d="M63.5 53.2c0-1.2-1-.7-1.6-.8v-.8h.8c.5-.5 1-.4 1.6-.2a.6.6 0 0 1 0 1v.8Z" class="cls-51"/>
      <path fill="#686868" d="M14.3 69v-.7c.5 0 .8.2.8.8Z"/>
      <path d="M16.7 47.6c.5 0 .8.3.8.8h-.8Z" class="cls-21"/>
      <path fill="#898989" d="M64.3 51.6h-1.6v-.8c.8.3 2-.7 2.4.8-.3.4-.5.4-.8 0Z"/>
      <path d="M77.8 70.7a.6.6 0 0 1-.5.7l-.2-.3a.6.6 0 0 1 .7-.4Z" class="cls-1"/>
      <path d="M68.3 65h.8c0 .5 0 .8-.6.7l-.2-.6Z"/>
      <path fill="#c6c6c6" d="M82.6 58v-.8c.5 0 .8.3.8.8Z"/>
      <path d="M16.7 71.5a.6.6 0 0 1-.5.7l-.2-.3a.6.6 0 0 1 .7-.5ZM18.3 73a.6.6 0 0 1-.5.7l-.2-.2a.6.6 0 0 1 .6-.5ZM49.2 60.3c0-.4 0-.7.5-.6.2 0 .2.4.3.6a.5.5 0 0 1-.8 0Z"/>
      <path d="M49.2 60.3h.8a.7.7 0 0 1-.8.8Z" class="cls-21"/>
      <circle cx="63.9" cy="54.4" r=".6" class="cls-21"/>
      <circle cx="64.7" cy="52" r=".6" fill="#7a7a7a"/>
    </g>
  </g>
</svg>
